# xmcd
#
# Track frame offsets:
#	150
#	19556
#	43521
#	57349
#	73760
#	93346
#	116193
#	134463
#	152670
#	170336
#	185693
#	201492
#	218549
#	249247
#
# Disc length: 3748 seconds
#
# Revision: 0
# Processed by: cddbd v1.5PL3 Copyright (c) Steve Scherf et al.
# Submitted via: dBpowerAMP V4.0
#
DISCID=c50ea20e
DTITLE=StikMen - you gotta' believe
DYEAR=1999
DGENRE=Blues
TTITLE0=Fast Mover
TTITLE1=Smile On Your Face
TTITLE2=More Than Money
TTITLE3=She's All Right
TTITLE4=You Don't Love Me
TTITLE5=You Gotta Believe
TTITLE6=Stop And Think About It
TTITLE7=Nothing Better To Do
TTITLE8=Love Was An Addiction
TTITLE9=Crawdad Hole
TTITLE10=Comin' To Your Rescue
TTITLE11=Cleanin' Up The House
TTITLE12=Love Ain't All
TTITLE13=DATA
EXTD=
EXTT0=
EXTT1=
EXTT2=
EXTT3=
EXTT4=
EXTT5=
EXTT6=
EXTT7=
EXTT8=
EXTT9=
EXTT10=
EXTT11=
EXTT12=
EXTT13=
PLAYORDER=
